<svg id="wave" style="transform:rotate(180deg); transition: 0.3s" viewBox="0 0 1440 490" version="1.1" xmlns="http://www.w3.org/2000/svg"><defs><linearGradient id="sw-gradient-0" x1="0" x2="0" y1="1" y2="0"><stop stop-color="rgba(5, 150, 105, 1)" offset="0%"></stop><stop stop-color="rgba(6, 78, 59, 1)" offset="100%"></stop></linearGradient></defs><path style="transform:translate(0, 0px); opacity:1" fill="url(#sw-gradient-0)" d="M0,392L60,383.8C120,376,240,359,360,302.2C480,245,600,147,720,114.3C840,82,960,114,1080,155.2C1200,196,1320,245,1440,253.2C1560,261,1680,229,1800,187.8C1920,147,2040,98,2160,106.2C2280,114,2400,180,2520,220.5C2640,261,2760,278,2880,310.3C3000,343,3120,392,3240,359.3C3360,327,3480,212,3600,147C3720,82,3840,65,3960,114.3C4080,163,4200,278,4320,302.2C4440,327,4560,261,4680,245C4800,229,4920,261,5040,302.2C5160,343,5280,392,5400,367.5C5520,343,5640,245,5760,204.2C5880,163,6000,180,6120,187.8C6240,196,6360,196,6480,163.3C6600,131,6720,65,6840,106.2C6960,147,7080,294,7200,359.3C7320,425,7440,408,7560,334.8C7680,261,7800,131,7920,130.7C8040,131,8160,261,8280,294C8400,327,8520,261,8580,228.7L8640,196L8640,490L8580,490C8520,490,8400,490,8280,490C8160,490,8040,490,7920,490C7800,490,7680,490,7560,490C7440,490,7320,490,7200,490C7080,490,6960,490,6840,490C6720,490,6600,490,6480,490C6360,490,6240,490,6120,490C6000,490,5880,490,5760,490C5640,490,5520,490,5400,490C5280,490,5160,490,5040,490C4920,490,4800,490,4680,490C4560,490,4440,490,4320,490C4200,490,4080,490,3960,490C3840,490,3720,490,3600,490C3480,490,3360,490,3240,490C3120,490,3000,490,2880,490C2760,490,2640,490,2520,490C2400,490,2280,490,2160,490C2040,490,1920,490,1800,490C1680,490,1560,490,1440,490C1320,490,1200,490,1080,490C960,490,840,490,720,490C600,490,480,490,360,490C240,490,120,490,60,490L0,490Z"></path></svg>